<?xml version="1.0" standalone="no"?>
<!DOCTYPE svg PUBLIC "-//W3C//DTD SVG 20010904//EN"
 "http://www.w3.org/TR/2001/REC-SVG-20010904/DTD/svg10.dtd">
<svg version="1.0" xmlns="http://www.w3.org/2000/svg"
 width="100.000000pt" height="100.000000pt" viewBox="0 0 100.000000 100.000000"
 preserveAspectRatio="xMidYMid meet">

<g transform="translate(0.000000,100.000000) scale(0.100000,-0.100000)"
fill="#000000" stroke="none">
<path d="M383 986 c-181 -44 -334 -202 -372 -384 -65 -310 179 -605 497 -601
270 2 494 234 491 507 -3 314 -310 552 -616 478z m107 -336 c0 -19 -7 -20
-150 -20 l-150 0 0 -55 0 -55 146 0 c133 0 145 -1 142 -17 -3 -16 -19 -18
-146 -21 l-142 -3 0 -54 0 -55 150 0 c143 0 150 -1 150 -20 0 -19 -7 -20 -170
-20 l-170 0 0 170 0 170 170 0 c163 0 170 -1 170 -20z m350 -109 c0 -203 -10
-215 -179 -209 -116 4 -130 13 -131 86 0 35 3 42 20 42 16 0 20 -7 20 -32 0
-18 4 -39 9 -46 12 -19 117 -27 169 -13 l42 12 0 138 c0 76 3 141 7 144 3 4
15 7 25 7 16 0 18 -11 18 -129z"/>
</g>
</svg>
